<svg xmlns="http://www.w3.org/2000/svg" viewBox="0 0 64 64" role="img" aria-label="Pallone da calcio">
  <rect width="64" height="64" rx="12" fill="#f7f6f3"/>
  <circle cx="32" cy="32" r="24" fill="#ffffff" stroke="#111111" stroke-width="3"/>

  <!-- Pentagono centrale -->
  <path d="M32 21l7 5-2.7 8.3h-8.6L25 26z" fill="#111111"/>

  <!-- Pentagoni esterni -->
  <path d="M17.4 28.5l7.2-.1 2.4 7.4-5.9 4.3-7-5.1z" fill="#111111"/>
  <path d="M46.6 28.5l3.3 6.5-7 5.1-5.9-4.3 2.4-7.4z" fill="#111111"/>
  <path d="M23.2 43.5l5.7-4.1h6.2l5.7 4.1-2.3 7.1h-13z" fill="#111111"/>
  <path d="M32 15.2l5.5 4-2.1 6.3h-6.8l-2.1-6.3z" fill="#111111"/>

  <!-- Cuciture bianche -->
  <path d="M32 34.6v4.8" stroke="#ffffff" stroke-width="1.6" stroke-linecap="round"/>
  <path d="M27.8 32.4l-3.7 2.6" stroke="#ffffff" stroke-width="1.4" stroke-linecap="round"/>
  <path d="M36.2 32.4l3.7 2.6" stroke="#ffffff" stroke-width="1.4" stroke-linecap="round"/>
</svg>
